<svg xmlns="http://www.w3.org/2000/svg" viewBox="0 0 500 500"><g id="freepik--background-simple--inject-60"><path d="M380.65,102.26c-25-30.14-43.39-64.17-84.45-77.33C224,1.78,166.58,44.37,136,87S50.85,147.14,31.41,205.47s3.7,92.58,28.7,108.32,90.73,83.33,115.73,112S268.43,472.11,311,448s40.74-62,76.85-100.92,75.92-76.84,69.44-141.65C452.4,156.51,408.94,136.3,380.65,102.26Z" style="fill:#90CAF9"></path><path d="M380.65,102.26c-25-30.14-43.39-64.17-84.45-77.33C224,1.78,166.58,44.37,136,87S50.85,147.14,31.41,205.47s3.7,92.58,28.7,108.32,90.73,83.33,115.73,112S268.43,472.11,311,448s40.74-62,76.85-100.92,75.92-76.84,69.44-141.65C452.4,156.51,408.94,136.3,380.65,102.26Z" style="fill:#fff;opacity:0.7000000000000001"></path></g><g id="freepik--Icons--inject-60"><rect x="333.24" y="27" width="96.46" height="94" style="fill:none;stroke:#263238;stroke-miterlimit:10"></rect><rect x="336.59" y="47.64" width="89.06" height="67.93" style="fill:none;stroke:#263238;stroke-miterlimit:10"></rect><path d="M339.39,42.93h-.66v-11h.94L343,41.21V31.89h.66v11h-.81l-3.45-9.84Z" style="fill:#263238"></path><path d="M348.63,37v.66h-3v4.61h3.62v.66h-4.35v-11h4.35v.66h-3.62V37Z" style="fill:#263238"></path><path d="M353.07,42.93h-1l-1.79-11H351L352.65,42l1.61-10H355l1.54,10,1.6-10h.64l-1.76,11h-.95l-1.48-9Z" style="fill:#263238"></path><path d="M364.66,31.89c1.71,0,2.37,1.07,2.37,2.68v1.2c0,1.75-.81,2.62-2.56,2.62H363.1v4.54h-.72v-11Zm-.19,5.84c1.28,0,1.83-.57,1.83-1.91v-1.3c0-1.19-.41-2-1.64-2H363.1v5.18Z" style="fill:#263238"></path><path d="M368.07,34.59c0-1.61.74-2.79,2.41-2.79s2.44,1.18,2.44,2.79v5.64c0,1.61-.74,2.79-2.44,2.79s-2.41-1.18-2.41-2.79Zm.72,5.69c0,1.2.48,2.08,1.69,2.08s1.72-.88,1.72-2.08V34.54c0-1.2-.49-2.08-1.72-2.08s-1.69.88-1.69,2.08Z" style="fill:#263238"></path><path d="M378.77,34.56v.23h-.69v-.28c0-1.17-.44-2-1.64-2s-1.64.87-1.64,2c0,2.68,4,2.73,4,5.77,0,1.6-.69,2.76-2.38,2.76S374,41.86,374,40.26V39.7h.69v.61c0,1.18.46,2,1.67,2s1.67-.86,1.67-2c0-2.65-4-2.69-4-5.77,0-1.65.72-2.73,2.34-2.74S378.77,33,378.77,34.56Z" style="fill:#263238"></path><path d="M381.82,42.93V32.55h-2.24v-.66h5.22v.66h-2.26V42.93Z" style="fill:#263238"></path><polyline points="336.59 115.57 380.74 69.9 400.37 77.83 418.09 58.19 425.63 65.36" style="fill:none;stroke:#263238;stroke-miterlimit:10"></polyline><circle cx="354.47" cy="67.31" r="9.46" transform="translate(207.84 396.98) rotate(-76.77)" style="fill:none;stroke:#263238;stroke-miterlimit:10"></circle><path d="M332.74,124h0a32.48,32.48,0,0,1-32.48-32.48h0A32.48,32.48,0,0,1,332.74,59h0a32.47,32.47,0,0,1,32.47,32.47h0A32.48,32.48,0,0,1,332.74,124Z" style="fill:#263238;stroke:#263238;stroke-linecap:round;stroke-linejoin:round"></path><path d="M327.59,111.12h7.91V91.33H341l.59-6.63h-6.1V80.92c0-1.56.31-2.18,1.82-2.18h4.28V71.86h-5.47c-5.89,0-8.54,2.6-8.54,7.55V84.7h-4.11v6.71h4.11Z" style="fill:#90CAF9"></path><path d="M111.32,185.32h0a21.79,21.79,0,0,1-21.79-21.79h0a21.8,21.8,0,0,1,21.79-21.79h0a21.79,21.79,0,0,1,21.79,21.79h0A21.78,21.78,0,0,1,111.32,185.32Z" style="fill:#263238;stroke:#263238;stroke-linecap:round;stroke-linejoin:round"></path><path d="M99.71,170.83a13.55,13.55,0,0,0,20.85-12,9.6,9.6,0,0,0,2.37-2.47,9.28,9.28,0,0,1-2.73.75,4.76,4.76,0,0,0,2.09-2.63,9.6,9.6,0,0,1-3,1.15,4.77,4.77,0,0,0-8.12,4.35,13.54,13.54,0,0,1-9.82-5,4.77,4.77,0,0,0,1.47,6.36,4.62,4.62,0,0,1-2.15-.6,4.77,4.77,0,0,0,3.82,4.74,4.84,4.84,0,0,1-2.15.08,4.76,4.76,0,0,0,4.45,3.31A9.59,9.59,0,0,1,99.71,170.83Z" style="fill:#90CAF9"></path><rect x="355.65" y="376.97" width="63.61" height="47.53" rx="2.88" style="fill:#fff;stroke:#263238;stroke-miterlimit:10"></rect><path d="M383.19,419H390V402h4.76l.5-5.71H390V393c0-1.35.27-1.88,1.57-1.88h3.69v-5.93h-4.72c-5.06,0-7.35,2.23-7.35,6.51v4.55h-3.54V402h3.54Z" style="fill:#263238"></path><path d="M369.28,370.93a2.48,2.48,0,0,0-2.49,2.48v6.53a2.49,2.49,0,0,0,5,0v-6.53A2.48,2.48,0,0,0,369.28,370.93Z" style="fill:#263238"></path><path d="M381.4,370.93a2.48,2.48,0,0,0-2.49,2.48v6.53a2.49,2.49,0,0,0,5,0v-6.53A2.48,2.48,0,0,0,381.4,370.93Z" style="fill:#263238"></path><path d="M393.51,370.93a2.48,2.48,0,0,0-2.48,2.48v6.53a2.49,2.49,0,0,0,5,0v-6.53A2.48,2.48,0,0,0,393.51,370.93Z" style="fill:#263238"></path><path d="M405.63,370.93a2.48,2.48,0,0,0-2.48,2.48v6.53a2.49,2.49,0,0,0,5,0v-6.53A2.49,2.49,0,0,0,405.63,370.93Z" style="fill:#263238"></path><path d="M75.4,250.3h0a21.79,21.79,0,0,1-21.79-21.79h0A21.8,21.8,0,0,1,75.4,206.72h0a21.8,21.8,0,0,1,21.79,21.79h0A21.79,21.79,0,0,1,75.4,250.3Z" style="fill:#fff;stroke:#263238;stroke-linecap:round;stroke-linejoin:round"></path><path d="M84.44,234.54h-.2V225.7A8.83,8.83,0,0,0,76.6,217v-.1a1.2,1.2,0,1,0-2.4,0v.1a8.83,8.83,0,0,0-7.64,8.74v8.84h-.2a1.61,1.61,0,0,0,0,3.21H84.44a1.61,1.61,0,0,0,0-3.21Z" style="fill:#263238"></path><path d="M75.4,241.36A3.61,3.61,0,0,0,79,238.15H71.81A3.61,3.61,0,0,0,75.4,241.36Z" style="fill:#263238"></path><path d="M301.88,424.33h0a21.79,21.79,0,0,1-21.79-21.8h0a21.78,21.78,0,0,1,21.79-21.78h0a21.79,21.79,0,0,1,21.79,21.78h0A21.8,21.8,0,0,1,301.88,424.33Z" style="fill:#fff;stroke:#263238;stroke-linecap:round;stroke-linejoin:round"></path><path d="M301.88,388.16a10.06,10.06,0,0,0-10.07,10.06c0,5.56,10.07,18.69,10.07,18.69s10.06-13.13,10.06-18.69A10.06,10.06,0,0,0,301.88,388.16Zm0,13.57a3.48,3.48,0,1,1,3.48-3.48A3.48,3.48,0,0,1,301.88,401.73Z" style="fill:#263238"></path><path d="M419.84,194.6A11.92,11.92,0,0,0,408,205.3a10.74,10.74,0,0,0-.06,1.14,11.71,11.71,0,0,0,2.28,6.95l-1.49,4.4,4.58-1.46a11.94,11.94,0,0,0,18.5-9.89c0-.31,0-.61,0-.92A11.91,11.91,0,0,0,419.84,194.6Zm7,16.73a3.46,3.46,0,0,1-2.34,1.64c-.64.06-.64.52-4.18-.86s-5.77-5-5.94-5.21a7.7,7.7,0,0,1-1.25-2.4,4.54,4.54,0,0,1-.18-1.17,3.89,3.89,0,0,1,1.22-2.89,1.31,1.31,0,0,1,.93-.43c.23,0,.46,0,.66,0s.5-.12.79.57,1,2.39,1.07,2.56a.62.62,0,0,1,0,.61c-.08.16-.14.28-.22.41l-.12.17c-.18.19-.37.44-.53.6s-.35.36-.15.7a10.18,10.18,0,0,0,1.93,2.39,9.31,9.31,0,0,0,2.8,1.71c.35.18.55.15.76-.08s.87-1,1.1-1.35.47-.29.78-.17,2,1,2.38,1.12.58.26.67.4A3,3,0,0,1,426.8,211.33Z" style="fill:#263238"></path><path d="M418.84,180.37a26.36,26.36,0,1,0,26.35,26.35A26.36,26.36,0,0,0,418.84,180.37Zm1,40.16a14.27,14.27,0,0,1-6.86-1.75l-7.86,2.5,2.56-7.56a14,14,0,0,1-2-7.28c0-.2,0-.41,0-.61a14.19,14.19,0,0,1,28.36.26c0,.12,0,.24,0,.35A14.13,14.13,0,0,1,419.84,220.53Z" style="fill:#263238"></path><polygon points="347.51 341.89 356.1 337 347.51 332.12 347.51 341.89" style="fill:#263238;stroke:#263238;stroke-linecap:round;stroke-linejoin:round"></polygon><path d="M350.88,310.65h0a26.36,26.36,0,1,0,0,52.71h0a26.36,26.36,0,0,0,0-52.71ZM366.62,345a4.12,4.12,0,0,1-2.91,2.93c-2.56.69-12.83.69-12.83.69s-10.28,0-12.84-.69a4.12,4.12,0,0,1-2.91-2.93,46.93,46.93,0,0,1,0-15.92,4.13,4.13,0,0,1,2.91-2.92c2.56-.69,12.84-.69,12.84-.69s10.27,0,12.83.69a4.13,4.13,0,0,1,2.91,2.92,46.26,46.26,0,0,1,0,15.92Z" style="fill:#263238;stroke:#263238;stroke-linecap:round;stroke-linejoin:round"></path><path d="M131.79,381.6A26.36,26.36,0,1,0,158.14,408,26.36,26.36,0,0,0,131.79,381.6Zm-7.23,37.48H119.1V401.46h5.46Zm-2.76-19.93A3.25,3.25,0,1,1,125,395.9,3.23,3.23,0,0,1,121.8,399.15ZM145,419.08h-5.43v-9.25c0-2.54-1-3.95-3-3.95-2.18,0-3.32,1.47-3.32,3.95v9.25H128V401.46h5.24v2.37a6.14,6.14,0,0,1,5.31-2.91c3.73,0,6.41,2.28,6.41,7Z" style="fill:#263238"></path><rect x="79.41" y="66.7" width="93.07" height="48.32" style="fill:none;stroke:#263238;stroke-miterlimit:10"></rect><path d="M95,87V96h-1V87Z" style="fill:#263238"></path><path d="M96.88,96H96V87h1.29l2.1,6.57V87h.9V96H99.21L96.88,88.7Z" style="fill:#263238"></path><path d="M102.61,96V87.88h-1.68V87h4.35v.92h-1.67V96Z" style="fill:#263238"></path><path d="M109.2,91v.91H107v3.23h2.73V96H106V87h3.74v.92H107V91Z" style="fill:#263238"></path><path d="M112.67,87c1.42,0,2,.73,2,2.08v.74c0,1-.35,1.62-1.13,1.86.83.25,1.14.93,1.14,1.9V95a2.24,2.24,0,0,0,.19,1.09h-1a2.32,2.32,0,0,1-.17-1.1V93.51c0-1-.48-1.35-1.32-1.35h-.72V96h-1V87Zm-.26,4.28c.8,0,1.28-.26,1.28-1.24v-.87c0-.82-.3-1.25-1-1.25h-1v3.36Z" style="fill:#263238"></path><path d="M119,91v.91h-2.22v3.23h2.72V96h-3.73V87h3.73v.92h-2.72V91Z" style="fill:#263238"></path><path d="M124.36,89.14v.25h-1v-.3c0-.82-.31-1.3-1-1.3s-1,.48-1,1.28c0,2,3.05,2.24,3.05,4.79,0,1.38-.66,2.27-2.05,2.27s-2-.89-2-2.27v-.52h.94v.58c0,.81.34,1.29,1.07,1.29s1.06-.48,1.06-1.29c0-2-3-2.22-3-4.78,0-1.4.64-2.27,2-2.27S124.36,87.76,124.36,89.14Z" style="fill:#263238"></path><path d="M126.57,96V87.88h-1.68V87h4.35v.92h-1.67V96Z" style="fill:#263238"></path><path d="M133.16,91v.91h-2.22v3.23h2.73V96h-3.74V87h3.74v.92h-2.73V91Z" style="fill:#263238"></path><path d="M136.73,87c1.42,0,2.06.86,2.06,2.26V93.8c0,1.39-.64,2.24-2.06,2.24H134.6V87Zm0,8.16c.73,0,1.08-.45,1.08-1.28V89.16c0-.83-.35-1.28-1.09-1.28h-1.09v7.24Z" style="fill:#263238"></path><path d="M94.83,111.1h-.91V102h1.29l2.1,6.57V102h.9v9.08h-1l-2.33-7.34Z" style="fill:#263238"></path><path d="M99.17,104.21c0-1.39.69-2.28,2.07-2.28s2.09.89,2.09,2.28v4.7c0,1.38-.68,2.28-2.09,2.28s-2.07-.9-2.07-2.28Zm1,4.75c0,.83.35,1.31,1.07,1.31s1.08-.48,1.08-1.31v-4.8c0-.82-.34-1.31-1.08-1.31s-1.07.49-1.07,1.31Z" style="fill:#263238"></path><path d="M105.61,111.1v-8.16h-1.68V102h4.35v.92H106.6v8.16Z" style="fill:#263238"></path><path d="M115,104.21V105h-1v-.83c0-.82-.33-1.31-1.06-1.31s-1.07.49-1.07,1.31V109c0,.82.34,1.31,1.07,1.31S114,109.78,114,109v-1.82h-.93v-.9H115v2.67c0,1.38-.65,2.28-2,2.28s-2-.9-2-2.28v-4.7c0-1.37.65-2.28,2-2.28S115,102.84,115,104.21Z" style="fill:#263238"></path><path d="M115.87,104.21c0-1.39.69-2.28,2.08-2.28s2.09.89,2.09,2.28v4.7c0,1.38-.69,2.28-2.09,2.28s-2.08-.9-2.08-2.28Zm1,4.75c0,.83.35,1.31,1.08,1.31S119,109.79,119,109v-4.8c0-.82-.34-1.31-1.08-1.31s-1.08.49-1.08,1.31Z" style="fill:#263238"></path><path d="M122,102v9.08h-1V102Z" style="fill:#263238"></path><path d="M124,111.1H123V102h1.28l2.11,6.57V102h.89v9.08h-1L124,103.76Z" style="fill:#263238"></path><path d="M132.37,104.21V105h-1v-.83c0-.82-.33-1.31-1.06-1.31s-1.07.49-1.07,1.31V109c0,.82.34,1.31,1.07,1.31s1.06-.49,1.06-1.31v-1.82h-.93v-.9h1.89v2.67c0,1.38-.65,2.28-2.05,2.28s-2-.9-2-2.28v-4.7c0-1.37.65-2.28,2-2.28S132.37,102.84,132.37,104.21Z" style="fill:#263238"></path><rect x="79.41" y="49.14" width="82.4" height="17.57" style="fill:#90CAF9;stroke:#263238;stroke-miterlimit:10"></rect><path d="M98,55.9v.78H97v-.84c0-.81-.33-1.31-1.07-1.31s-1.06.5-1.06,1.31v4.81c0,.81.34,1.31,1.06,1.31S97,61.46,97,60.65V58.83h-.94v-.91H98v2.67c0,1.38-.65,2.29-2,2.29s-2-.91-2-2.29V55.9c0-1.38.65-2.29,2-2.29S98,54.52,98,55.9Z" style="fill:#263238"></path><path d="M98.83,55.9c0-1.39.69-2.29,2.08-2.29s2.09.9,2.09,2.29v4.69c0,1.38-.69,2.29-2.09,2.29s-2.08-.91-2.08-2.29Zm1,4.75c0,.83.35,1.31,1.08,1.31s1.07-.48,1.07-1.31V55.84c0-.81-.33-1.31-1.07-1.31s-1.08.5-1.08,1.31Z" style="fill:#263238"></path><path d="M105,53.7v9.09h-1V53.7Z" style="fill:#263238"></path><path d="M106.9,62.79H106V53.7h1.29l2.1,6.57V53.7h.9v9.09h-1l-2.33-7.35Z" style="fill:#263238"></path><path d="M115.33,55.9v.78h-1v-.84c0-.81-.33-1.31-1.07-1.31s-1.06.5-1.06,1.31v4.81c0,.81.34,1.31,1.06,1.31s1.07-.5,1.07-1.31V58.83h-.94v-.91h1.9v2.67c0,1.38-.65,2.29-2,2.29s-2-.91-2-2.29V55.9c0-1.38.65-2.29,2-2.29S115.33,54.52,115.33,55.9Z" style="fill:#263238"></path><polygon points="150.52 61.69 155.78 56.04 145.26 56.04 150.52 61.69" style="fill:#263238"></polygon><path d="M96.08,75.92h2V78.8c0,1.46-.73,2.29-2.13,2.29s-2.13-.83-2.13-2.29V74.08a2.13,2.13,0,1,1,4.26,0V75H96.73V74c0-.65-.29-.9-.74-.9s-.74.25-.74.9v4.9c0,.65.28.89.74.89s.74-.24.74-.89V77.22h-.65Z" style="fill:#263238"></path><path d="M98.88,74.08a2.17,2.17,0,1,1,4.34,0V78.8a2.17,2.17,0,1,1-4.34,0Zm1.43,4.81c0,.65.29.9.74.9s.74-.25.74-.9V74c0-.65-.29-.9-.74-.9s-.74.25-.74.9Z" style="fill:#263238"></path><path d="M104.14,71.9h1.43V81h-1.43Z" style="fill:#263238"></path><path d="M107.88,74.4V81h-1.29V71.9h1.79l1.47,5.44V71.9h1.27V81h-1.47Z" style="fill:#263238"></path><path d="M114.29,75.92h2V78.8c0,1.46-.73,2.29-2.13,2.29S112,80.26,112,78.8V74.08a2.13,2.13,0,1,1,4.26,0V75h-1.35V74c0-.65-.29-.9-.74-.9s-.74.25-.74.9v4.9c0,.65.28.89.74.89s.74-.24.74-.89V77.22h-.65Z" style="fill:#263238"></path><polygon points="86.59 79.87 84.14 74.98 84.85 74.63 86.64 78.2 89.97 72.49 90.66 72.89 86.59 79.87" style="fill:#263238"></polygon><path d="M359.56,189.21h0a21.8,21.8,0,0,1-21.79-21.79h0a21.79,21.79,0,0,1,21.79-21.79h0a21.78,21.78,0,0,1,21.79,21.79h0A21.79,21.79,0,0,1,359.56,189.21Z" style="fill:#fff;stroke:#263238;stroke-linecap:round;stroke-linejoin:round"></path><path d="M368.6,173.44h-.2v-8.83a8.84,8.84,0,0,0-7.64-8.75s0-.06,0-.09a1.21,1.21,0,0,0-2.41,0,.28.28,0,0,0,0,.09,8.83,8.83,0,0,0-7.64,8.75v8.83h-.2a1.61,1.61,0,1,0,0,3.21H368.6a1.61,1.61,0,0,0,0-3.21Z" style="fill:#263238"></path><path d="M359.56,180.27a3.62,3.62,0,0,0,3.59-3.21H356A3.62,3.62,0,0,0,359.56,180.27Z" style="fill:#263238"></path><circle cx="375.89" cy="152.6" r="7.27" transform="translate(-25.05 90.74) rotate(-13.32)" style="fill:#90CAF9;stroke:#263238;stroke-linecap:round;stroke-miterlimit:10"></circle><path d="M376,149.29c-.41,0-.67.23-.67.81V151h-1.21v-.79c0-1.31.65-2.05,1.91-2.05a1.79,1.79,0,0,1,1.92,2.05c0,2.57-2.56,3.53-2.56,4.87a.91.91,0,0,0,0,.17h2.43v1.17h-3.71v-1c0-2.41,2.54-2.8,2.54-5.16C376.62,149.49,376.36,149.29,376,149.29Z" style="fill:#263238"></path><path d="M348.87,272.83h0A21.79,21.79,0,0,1,327.08,251h0a21.8,21.8,0,0,1,21.79-21.79h0A21.8,21.8,0,0,1,370.66,251h0A21.79,21.79,0,0,1,348.87,272.83Z" style="fill:#263238;stroke:#263238;stroke-linecap:round;stroke-linejoin:round"></path><path d="M348.87,241.25c3.19,0,3.57,0,4.83.07a6.67,6.67,0,0,1,2.22.41,3.91,3.91,0,0,1,1.37.89,3.61,3.61,0,0,1,.89,1.38,6.54,6.54,0,0,1,.42,2.22c0,1.26.07,1.63.07,4.82s0,3.57-.07,4.83a6.54,6.54,0,0,1-.42,2.22,3.5,3.5,0,0,1-.89,1.37,3.8,3.8,0,0,1-1.37.9,6.67,6.67,0,0,1-2.22.41c-1.26.06-1.64.07-4.83.07s-3.57,0-4.83-.07a6.73,6.73,0,0,1-2.22-.41,3.8,3.8,0,0,1-1.37-.9,3.5,3.5,0,0,1-.89-1.37,6.36,6.36,0,0,1-.41-2.22c-.06-1.26-.07-1.64-.07-4.83s0-3.56.07-4.82a6.36,6.36,0,0,1,.41-2.22,3.61,3.61,0,0,1,.89-1.38,3.91,3.91,0,0,1,1.37-.89,6.73,6.73,0,0,1,2.22-.41c1.26-.06,1.64-.07,4.83-.07m0-2.15c-3.24,0-3.65,0-4.93.07a9,9,0,0,0-2.9.55,6,6,0,0,0-2.11,1.38,5.87,5.87,0,0,0-1.38,2.12,8.72,8.72,0,0,0-.55,2.9c-.06,1.27-.08,1.68-.08,4.92s0,3.66.08,4.93a8.72,8.72,0,0,0,.55,2.9,5.87,5.87,0,0,0,1.38,2.12,5.81,5.81,0,0,0,2.11,1.37,8.7,8.7,0,0,0,2.9.56c1.28.06,1.69.07,4.93.07s3.65,0,4.93-.07a8.7,8.7,0,0,0,2.9-.56,5.81,5.81,0,0,0,2.11-1.37,5.74,5.74,0,0,0,1.38-2.12,8.7,8.7,0,0,0,.56-2.9c.05-1.27.07-1.68.07-4.93s0-3.65-.07-4.92a8.7,8.7,0,0,0-.56-2.9,5.74,5.74,0,0,0-1.38-2.12,6,6,0,0,0-2.11-1.38,9,9,0,0,0-2.9-.55c-1.28-.06-1.68-.07-4.93-.07" style="fill:#90CAF9"></path><path d="M348.87,244.91A6.14,6.14,0,1,0,355,251a6.13,6.13,0,0,0-6.14-6.13m0,10.12a4,4,0,1,1,4-4,4,4,0,0,1-4,4" style="fill:#90CAF9"></path><path d="M356.68,244.67a1.44,1.44,0,1,1-1.43-1.44,1.43,1.43,0,0,1,1.43,1.44" style="fill:#90CAF9"></path><rect x="55.34" y="262.89" width="115.41" height="112.46" style="fill:none;stroke:#263238;stroke-miterlimit:10"></rect><rect x="59.34" y="287.58" width="106.56" height="81.27" style="fill:none;stroke:#263238;stroke-miterlimit:10"></rect><path d="M62.69,281.94H61.9v-13.2H63l4,11.15V268.74h.8v13.2h-1l-4.13-11.77Z" style="fill:#263238"></path><path d="M73.75,274.85v.79h-3.6v5.51h4.33v.79h-5.2v-13.2h5.2v.79H70.15v5.32Z" style="fill:#263238"></path><path d="M79.07,281.94H77.86l-2.13-13.2h.85l2,12,1.92-12h.92l1.85,11.94,1.91-12h.77l-2.11,13.2H82.69l-1.78-10.8Z" style="fill:#263238"></path><path d="M92.93,268.74c2,0,2.83,1.28,2.83,3.21v1.43c0,2.09-1,3.13-3.06,3.13H91.06v5.43H90.2v-13.2Zm-.23,7c1.53,0,2.19-.68,2.19-2.28v-1.55c0-1.43-.49-2.36-2-2.36H91.06v6.19Z" style="fill:#263238"></path><path d="M97,272c0-1.93.89-3.34,2.89-3.34s2.92,1.41,2.92,3.34v6.75c0,1.92-.88,3.34-2.92,3.34S97,280.64,97,278.72Zm.87,6.8c0,1.44.57,2.49,2,2.49s2.06-1.05,2.06-2.49v-6.86c0-1.44-.59-2.49-2.06-2.49s-2,1.05-2,2.49Z" style="fill:#263238"></path><path d="M109.81,271.93v.28H109v-.34c0-1.4-.53-2.45-2-2.45s-2,1-2,2.43c0,3.21,4.77,3.27,4.77,6.91,0,1.9-.83,3.3-2.85,3.3s-2.84-1.4-2.84-3.3v-.68H105v.73c0,1.42.54,2.44,2,2.44s2-1,2-2.44c0-3.17-4.77-3.22-4.77-6.9,0-2,.87-3.26,2.81-3.28S109.81,270,109.81,271.93Z" style="fill:#263238"></path><path d="M113.45,281.94V269.53h-2.68v-.79H117v.79h-2.7v12.41Z" style="fill:#263238"></path><polyline points="59.34 368.85 112.17 314.22 135.65 323.7 156.85 300.2 165.88 308.78" style="fill:none;stroke:#263238;stroke-miterlimit:10"></polyline><circle cx="80.74" cy="311.11" r="11.32" transform="translate(-240.6 318.22) rotate(-76.72)" style="fill:none;stroke:#263238;stroke-miterlimit:10"></circle></g><g id="freepik--Character--inject-60"><ellipse cx="237.93" cy="461.94" rx="71.03" ry="17.57" style="fill:#263238"></ellipse><path d="M262.94,73.5s-8.05-10.38-22.06-10.12-34.27,17.13-39.2,30.37,4.41,17.65,3.89,19.47-15,8-15.31,18.17,6.75,12.2,4.93,14.28-7,10.38-5.19,19.47,23.1,16.09,45.43,16.87,43.87-5.45,52.95-13,13-13.76,9.87-19.73-5.19-8-4.16-12.2,6.75-8.56,2.34-15-14.54-10.39-13.76-12.46,8.31-5.46.78-21S267.36,71.68,262.94,73.5Z" style="fill:#263238;stroke:#263238;stroke-linecap:round;stroke-miterlimit:10"></path><path d="M244.47,291.53s1.59,21.86.95,29.15-.95,21.54-.31,26.29a85.87,85.87,0,0,0,1.58,8.55s-6,13-6.65,21.55-1.59,34.84-2.85,39.91-4.12,8.24-3.17,12.68,4.12,6.65,4.75,15.52,3.71,17.9,7.6,20.91c3.26,2.51,10.14,2.85,12.67-3.17s1.59-15.21-1.58-23.44-6.65-13-5.7-18.38,14.57-17.11,16.79-29.78,2.22-29.14,3.17-32.94,15.84-32.32,16.79-50.06.95-27.24.95-27.24l-45.94,5.38Z" style="fill:#fff;stroke:#263238;stroke-miterlimit:10"></path><path d="M244.38,428.07a10.07,10.07,0,0,0-3.08,4.75,93.73,93.73,0,0,1-5.22-12.5c-1.3,3.31-2.79,6-2.06,9.34.95,4.43,4.12,6.65,4.75,15.52s3.71,17.9,7.6,20.91c3.26,2.51,10.14,2.85,12.67-3.17s1.59-15.21-1.58-23.44c-1.45-3.79-3-6.83-4.1-9.55l-.24-.11S246.83,426,244.38,428.07Z" style="fill:#90CAF9;stroke:#263238;stroke-miterlimit:10"></path><path d="M271.72,358.38c.95-3.81,15.84-32.32,16.79-50.06s.95-27.24.95-27.24l-45.94,5.38.95,5.07s1.59,21.86.95,29.15-.95,21.54-.31,26.29a85.87,85.87,0,0,0,1.58,8.55s-6,13-6.65,21.55c-.45,6-1.06,20.93-1.82,30.94.81,2.58,3,6.25,9,7.13a21.08,21.08,0,0,0,8.28-.55c4.47-6.08,11.54-14.44,13.09-23.27C270.77,378.65,270.77,362.18,271.72,358.38Z" style="fill:#263238;stroke:#263238;stroke-miterlimit:10"></path><path d="M236,434.36l-.09.11c.2.4.39.82.59,1.26C236.2,434.87,236,434.36,236,434.36Z" style="fill:#fff;stroke:#263238;stroke-miterlimit:10"></path><path d="M259,462.92a13.41,13.41,0,0,0,.56-1.58c-1.88,2.56-4.4,4.64-7.88,4.81-7,.35-10.83-9.43-11.53-16.07a54,54,0,0,0-2-9.16,32.11,32.11,0,0,1,.58,4.26c.63,8.87,3.71,17.9,7.6,20.91C249.63,468.6,256.51,468.94,259,462.92Z" style="fill:#fff;stroke:#263238;stroke-miterlimit:10"></path><path d="M190.62,284.24S197.27,313.71,202,327s7,18.38,6,27.25-6.34,21.22-1.9,33.58,11.4,29.14,12,35.48,1.58,13,1.58,13-.63,14.89,2.54,20,16.15,7.28,18.69,3.48,1.9-21.22.31-26.93-1.58-23.12-1.26-34.21,0-28.83,0-36.12a127.84,127.84,0,0,0-1.27-15.84S240,324.79,240,315s-.32-20,.31-21.22,0-3.8,0-3.8Z" style="fill:#fff;stroke:#263238;stroke-miterlimit:10"></path><path d="M240,398.61c.31-11.09,0-28.83,0-36.12a127.84,127.84,0,0,0-1.27-15.84S240,324.79,240,315s-.32-20,.31-21.22,0-3.8,0-3.8l-49.73-5.71S197.27,313.71,202,327s7,18.38,6,27.25-6.34,21.22-1.9,33.58c3.21,8.94,7.74,20.2,10.25,28.14,2.83-3,8-6.87,14.46-4.38a28.36,28.36,0,0,1,9.09,5.43C239.81,410.77,239.88,404,240,398.61Z" style="fill:#263238;stroke:#263238;stroke-miterlimit:10"></path><path d="M242.25,443.91s-6-13.3-10.77-17.74c-4.3-4-14.89-6.34-21.22-.32s-5.7,13.94-3.17,20.6,10.14,13.3,17.42,18.37,6.66,5.7,11.41,6,10.14-1.58,10.77-7-2.85-13.31-2.85-15.84A6.22,6.22,0,0,0,242.25,443.91Z" style="fill:#90CAF9;stroke:#263238;stroke-miterlimit:10"></path><path d="M239.48,448.21c-1.64-3.63-1.27-9.62-3-12.48s-5.55-9.66-15.17-10.93c-6.33-.84-10.37,1.07-12.4,2.48-4.89,5.81-4.18,13-1.84,19.17,2.53,6.65,10.14,13.3,17.42,18.37s6.66,5.7,11.41,6,10.14-1.58,10.77-7a20,20,0,0,0-.48-6l-.92-1.08C242.38,453.3,241.11,451.84,239.48,448.21Z" style="fill:#fff;stroke:#263238;stroke-miterlimit:10"></path><path d="M245.11,460.39c-1.59-3.49-4.12-4.12-6-9.19s-2.85-11.41-4.44-14.57a18.79,18.79,0,0,0-15.52-9.51c-8.56-.32-13.31,6.65-13.31,6.65l-.14.05c-.93,4.21-.11,8.64,1.41,12.63,2.53,6.65,10.14,13.3,17.42,18.37s6.66,5.7,11.41,6,10.14-1.58,10.77-7c0-.22,0-.45.05-.68A15.75,15.75,0,0,1,245.11,460.39Z" style="fill:#4c4c4c;stroke:#263238;stroke-miterlimit:10"></path><path d="M207.65,144.28s-12.46,2.08-15.06,9.35c-1.36,3.82-5.19,14-6.49,20s-18.17,43.09-18.17,45.94,4.41,4.42,11.16,6.49,9.09,1.82,11.17-2.07,14-26.48,14-26.48,4.16,10.12,2.86,16.35-9.35,24.92-14.28,40.5-4.67,32.19-4.15,33,25.44,9.08,59.7,7,44.14-6,44.14-6,2.33-18.17-1.3-34-9.09-35-10.39-42-1.55-10.39-1-12.72,3.63-9.09,3.63-9.09,14,37.12,17.65,39.2,14,1,16.88-2.08,4.67-7.79,4.15-9.86-18.95-46.21-23.1-55.82-12.46-18.69-23.37-22.06-50.1-1.3-51.66-1.3S207.65,144.28,207.65,144.28Z" style="fill:#90CAF9;stroke:#263238;stroke-linecap:round;stroke-miterlimit:10"></path><path d="M275.36,155.52c3.38-5.76,5.06-10.08,5.61-13.45a31.74,31.74,0,0,0-5.31-2.2c-10.9-3.38-50.1-1.3-51.66-1.3-1.31,0-12,4.06-15.37,5.33a4.67,4.67,0,0,0-.24,4.16c1.55,3.87,18.43,18.78,32.45,19.89S268.87,166.57,275.36,155.52Z" style="fill:#263238;stroke:#263238;stroke-linecap:round;stroke-miterlimit:10"></path><path d="M204,196.72A125.35,125.35,0,0,1,199.6,183" style="fill:none;stroke:#263238;stroke-linecap:round;stroke-miterlimit:10"></path><path d="M233.09,280.3a258.38,258.38,0,0,0,59.5-5.64" style="fill:none;stroke:#263238;stroke-linecap:round;stroke-miterlimit:10"></path><path d="M195.46,277.16a271.45,271.45,0,0,0,33.17,3" style="fill:none;stroke:#263238;stroke-linecap:round;stroke-miterlimit:10"></path><path d="M190.34,276.26s.86.18,2.47.46" style="fill:none;stroke:#263238;stroke-linecap:round;stroke-miterlimit:10"></path><line x1="199.44" y1="277.87" x2="198.91" y2="286.7" style="fill:none;stroke:#263238;stroke-linecap:round;stroke-miterlimit:10"></line><line x1="209.61" y1="279.21" x2="209.35" y2="290.18" style="fill:none;stroke:#263238;stroke-linecap:round;stroke-miterlimit:10"></line><line x1="220.94" y1="289.38" x2="220.86" y2="291.25" style="fill:none;stroke:#263238;stroke-linecap:round;stroke-miterlimit:10"></line><line x1="221.39" y1="280.01" x2="221.07" y2="286.7" style="fill:none;stroke:#263238;stroke-linecap:round;stroke-miterlimit:10"></line><line x1="275.99" y1="291.78" x2="275.99" y2="284.02" style="fill:none;stroke:#263238;stroke-linecap:round;stroke-miterlimit:10"></line><line x1="281.88" y1="278.4" x2="281.88" y2="287.23" style="fill:none;stroke:#263238;stroke-linecap:round;stroke-miterlimit:10"></line><line x1="288.57" y1="275.99" x2="288.57" y2="286.16" style="fill:none;stroke:#263238;stroke-linecap:round;stroke-miterlimit:10"></line><line x1="258.59" y1="280.01" x2="258.59" y2="288.04" style="fill:none;stroke:#263238;stroke-linecap:round;stroke-miterlimit:10"></line><path d="M283.45,190.49s2.18-5.77,2.18-10.05c0,0,1.92,4.07,1.28,7.69a32.4,32.4,0,0,1-1.7,6.18Z" style="fill:#263238;stroke:#263238;stroke-linecap:round;stroke-miterlimit:10"></path><path d="M225.3,124.88s-4.93-.83-6.23,2.21-4.15,8.56-4.15,8.56-4.16,0-5.45,2.49-4.94,4.69-3.38,8.56,18.43,18.79,32.45,19.89,28-1.38,34.53-12.43,6.75-16.85,4.67-20.72-4.41-4.7-4.41-4.7a7.42,7.42,0,0,0-3.38-5.8,9.24,9.24,0,0,0-6.75-1.38L242.43,121Z" style="fill:#90CAF9;stroke:#263238;stroke-linecap:round;stroke-miterlimit:10"></path><path d="M246.63,144.54s1.43,1.91,7.15-.24,13-12,12.87-15.48-2.39-3.58-2.39-3.58Z" style="fill:#263238;stroke:#263238;stroke-linecap:round;stroke-miterlimit:10"></path><path d="M215.7,136.76a12.55,12.55,0,0,0,4.93,8.56c4.67,3.59,20.77,8,17.91,9.67s-8.31-1.93-10.12-3.59" style="fill:none;stroke:#263238;stroke-linecap:round;stroke-miterlimit:10"></path><path d="M273.36,138.67a15.32,15.32,0,0,0,1-4.13" style="fill:none;stroke:#263238;stroke-linecap:round;stroke-miterlimit:10"></path><path d="M249.7,149.46s4.94,3.32,13.76,0a16,16,0,0,0,8-6.79" style="fill:none;stroke:#263238;stroke-linecap:round;stroke-miterlimit:10"></path><path d="M254.39,91.7a91.7,91.7,0,0,1-17.28,13.12c-9.6,5.44-13.44,5.76-13.44,5.76s1.92,11.2,2.24,15,12.16,13.76,15.68,16.32,6.08,3.2,9.6,1.92,14.08-14.72,15.36-18.56,1.6-16.64,1.6-16.64S254.39,102.26,254.39,91.7Z" style="fill:#fff;stroke:#263238;stroke-linecap:round;stroke-miterlimit:10"></path><path d="M243.32,131.77s4.76-2,7,.25" style="fill:none;stroke:#263238;stroke-linecap:round;stroke-miterlimit:10"></path><path d="M223.67,110.58l-3.56,0s1.56,5.45,2.34,7.27a4.36,4.36,0,0,0,2.59,2.34Z" style="fill:#fff;stroke:#263238;stroke-linecap:round;stroke-miterlimit:10"></path><path d="M268.15,108.66l2.06,1.18a38.83,38.83,0,0,1-.52,6.23,14.61,14.61,0,0,1-2.59,5.2Z" style="fill:#fff;stroke:#263238;stroke-linecap:round;stroke-miterlimit:10"></path><path d="M237.76,113.87c0,1.36-.58,2.46-1.3,2.46s-1.29-1.1-1.29-2.46.58-2.47,1.29-2.47S237.76,112.51,237.76,113.87Z" style="fill:#263238"></path><path d="M256.45,113.87c0,1.36-.58,2.46-1.3,2.46s-1.29-1.1-1.29-2.46.58-2.47,1.29-2.47S256.45,112.51,256.45,113.87Z" style="fill:#263238"></path><path d="M241.66,121s-.78,2.33.26,3.11a2.61,2.61,0,0,0,2.07.52,4.66,4.66,0,0,0,2.86,1.3,2.87,2.87,0,0,0,2.33-1.3,1.28,1.28,0,0,0,2.08-.78c.52-1.81-.52-2.33-.52-2.33" style="fill:none;stroke:#263238;stroke-linecap:round;stroke-miterlimit:10"></path><line x1="231.53" y1="108.03" x2="240.31" y2="105.44" style="fill:none;stroke:#263238;stroke-linecap:round;stroke-miterlimit:10;stroke-width:2px"></line><path d="M250.74,106.73s4.93-3.12,9.87-.26" style="fill:none;stroke:#263238;stroke-linecap:round;stroke-miterlimit:10;stroke-width:2px"></path><line x1="231.01" y1="118.15" x2="237.5" y2="118.93" style="fill:none;stroke:#263238;stroke-linecap:round;stroke-miterlimit:10;stroke-width:0.5px"></line><line x1="260.61" y1="117.63" x2="253.08" y2="118.93" style="fill:none;stroke:#263238;stroke-linecap:round;stroke-miterlimit:10;stroke-width:0.5px"></line><path d="M254.49,224.76H238.17a2.14,2.14,0,0,1-2.25-1.84l-1.85-36.84a2.45,2.45,0,0,1,2.46-2.6h19.59a2.45,2.45,0,0,1,2.47,2.6l-1.85,36.84A2.14,2.14,0,0,1,254.49,224.76Z" style="fill:#263238;stroke:#263238;stroke-linecap:round;stroke-miterlimit:10"></path><path d="M218.55,219.3a111,111,0,0,0,5.71-16.61c1.82-7.79,3.12-9.34,4.93-10.38s10.39-4.94,11.17-3.38.26,2.08-1.3,3.12-7.79,4.15-7.79,4.15l-.78,2.86S239.06,197,241.4,197s3.11,1.56,1.55,2.86-10.9,3.11-11.68,3.63a7,7,0,0,0-1.56,2.34,50.23,50.23,0,0,1,9.87-1.56c3.89,0,2.59,1.82,1.56,2.85s-8.83,2.86-8.83,2.86L231,212.3s4.93-1.56,7.27-1.56,5.19-1.56,4.41.26-4.93,2.85-6.75,3.37-4.67,1.56-5.19,3.38-.26,6-2.59,7.53S218,230.21,218,230.21,216.22,224.24,218.55,219.3Z" style="fill:#fff;stroke:#263238;stroke-linecap:round;stroke-miterlimit:10"></path><path d="M171.31,213.07c-1.82,2.08-5.72,9.09-3.38,14s13.76,7.27,22.85,7.79,28.81-1,28.81-1-.52-3.89-1.3-7.27.52-8,.52-8-17.91-3.38-23.1-4.94-11.17-3.89-15.58-2.59" style="fill:#90CAF9;stroke:#263238;stroke-linecap:round;stroke-miterlimit:10"></path><path d="M183.51,208.66s6.75-.26,9.6,3.9" style="fill:none;stroke:#263238;stroke-linecap:round;stroke-miterlimit:10"></path><path d="M272.11,219.3a112.3,112.3,0,0,1-5.71-16.61c-1.82-7.79-3.11-9.34-4.93-10.38s-10.38-4.94-11.16-3.38-.26,2.08,1.29,3.12,7.79,4.15,7.79,4.15l.78,2.86S251.6,197,249.27,197s-3.12,1.56-1.56,2.86,10.9,3.11,11.68,3.63a7,7,0,0,1,1.56,2.34,50.23,50.23,0,0,0-9.86-1.56c-3.9,0-2.6,1.82-1.56,2.85s8.82,2.86,8.82,2.86l1.3,2.34s-4.93-1.56-7.27-1.56-5.19-1.56-4.41.26,4.93,2.85,6.75,3.37,4.67,1.56,5.19,3.38.26,6,2.6,7.53,10.12,4.93,10.12,4.93S274.45,224.24,272.11,219.3Z" style="fill:#fff;stroke:#263238;stroke-linecap:round;stroke-miterlimit:10"></path><path d="M319.36,213.07c1.82,2.08,5.71,9.09,3.37,14s-13.75,7.27-22.84,7.79-28.82-1-28.82-1,.52-3.89,1.3-7.27-.52-8-.52-8,17.92-3.38,23.11-4.94,11.16-3.89,15.57-2.59" style="fill:#90CAF9;stroke:#263238;stroke-linecap:round;stroke-miterlimit:10"></path><path d="M307.16,208.66s-6.75-.26-9.61,3.9" style="fill:none;stroke:#263238;stroke-linecap:round;stroke-miterlimit:10"></path></g></svg>